# xmcd
#
# Track frame offsets: 
#        150
#        3442
#        91852
#        95080
#
# Disc length: 2635 seconds
#
# Revision: 7
# Processed by: cddbd v1.5.2PL0 Copyright (c) Steve Scherf et al.
# Submitted via: ExactAudioCopyFreeDBPlugin 1.0
#
DISCID=240a4904
DTITLE=John Coltrane - One Down, One Up (Live at the Half Note) Disc 2
DYEAR=1965
DGENRE=Jazz
TTITLE0=Introduction and Announcements 3
TTITLE1=Song of Praise
TTITLE2=Announcements 4
TTITLE3=My Favorite Things
EXTD=Recorded at the Half Note, NYC\nDisk One on March 26, Disk Two on
EXTD=May 7.\n\nJohn Coltrane, McCoy Tyner, Jimmy Garrison, Elvin Jone
EXTD=s.\n\nReleased 2005. ID3G:   8 YEAR: 1965
EXTT0=
EXTT1=
EXTT2=
EXTT3=
PLAYORDER=
